<svg width="84" height="84" viewBox="0 0 84 84" fill="none" xmlns="http://www.w3.org/2000/svg">
<mask id="mask0_1007_412" style="mask-type:luminance" maskUnits="userSpaceOnUse" x="0" y="0" width="84" height="84">
<path d="M82.4894 82.8418V1.86316H1.51074V82.8418H82.4894Z" fill="white" stroke="white" stroke-width="2"/>
</mask>
<g mask="url(#mask0_1007_412)">
<path d="M10.6522 68.4344C11.634 69.8661 13.2812 70.8059 15.1484 70.8059C17.0175 70.8059 18.6664 69.8642 19.6477 68.43C21.7271 68.8924 28.5796 70.9461 28.5796 77.9277V82.6139H3.21862C3.02446 82.6139 2.8322 82.5756 2.65283 82.5013C2.47345 82.427 2.31047 82.3181 2.17318 82.1808C2.0359 82.0435 1.92701 81.8805 1.85272 81.7011C1.77844 81.5217 1.74021 81.3295 1.74023 81.1353V77.9277C1.74023 70.9682 8.54951 68.9054 10.6522 68.4344Z" stroke="#317A9E" stroke-width="2" stroke-miterlimit="10" stroke-linecap="round" stroke-linejoin="round"/>
<path d="M37.491 68.4341C38.4728 69.8659 40.1201 70.8057 41.9873 70.8057C43.8564 70.8057 45.5051 69.8639 46.4866 68.4298C48.5659 68.8922 55.4183 70.9459 55.4183 77.9274V82.6136H28.5791V77.9274C28.5791 70.9679 35.3884 68.9051 37.491 68.4341Z" stroke="#317A9E" stroke-width="2" stroke-miterlimit="10" stroke-linecap="round" stroke-linejoin="round"/>
<path d="M81.0399 73.3676C81.7809 74.5853 82.2583 76.0847 82.2583 77.9274V81.1351C82.2583 81.5272 82.1025 81.9033 81.8253 82.1806C81.548 82.4578 81.1719 82.6136 80.7798 82.6136H55.4189V77.9274C55.4189 70.9678 62.2282 68.9051 64.3309 68.4341C65.3127 69.8659 66.9599 70.8055 68.8271 70.8055C70.6963 70.8055 72.3451 69.8639 73.3264 68.4296C74.0498 68.5904 75.3505 68.9438 76.7393 69.63" stroke="#317A9E" stroke-width="2" stroke-miterlimit="10" stroke-linecap="round" stroke-linejoin="round"/>
<path d="M7.55177 52.9802C7.55177 51.9543 8.38334 51.1228 9.40922 51.1228H9.47194C9.55434 51.1228 9.63593 51.1066 9.71205 51.075C9.78818 51.0435 9.85735 50.9973 9.91561 50.9391C9.97387 50.8808 10.0201 50.8116 10.0516 50.7355C10.0831 50.6594 10.0993 50.5778 10.0993 50.4954C10.0993 49.4695 10.9309 48.6378 11.9568 48.6378H17.8692C20.5002 48.6378 22.6331 50.7707 22.6331 53.4019L22.7677 59.4153C22.767 60.2643 22.0782 60.9523 21.2291 60.952L20.8343 60.9518C20.7943 62.5224 20.1358 64.0316 18.9536 65.0534C18.0016 65.8759 16.6652 66.5918 14.904 66.6043C13.1428 66.5769 11.8125 65.8495 10.8675 65.0189C9.69365 63.987 9.04781 62.4724 9.02091 60.9014L8.61655 60.8997C8.02598 60.8972 7.54934 60.4105 7.55177 59.8127V52.9802Z" stroke="#317A9E" stroke-width="2" stroke-miterlimit="10" stroke-linecap="round" stroke-linejoin="round"/>
<path d="M61.2295 52.9802C61.2295 51.9543 62.0611 51.1228 63.087 51.1228H63.1497C63.3161 51.1227 63.4756 51.0566 63.5932 50.939C63.7109 50.8213 63.777 50.6618 63.777 50.4954C63.777 49.4695 64.6086 48.6378 65.6345 48.6378H71.5467C74.1779 48.6378 76.3109 50.7708 76.3109 53.4019L76.4452 59.4153C76.4449 59.823 76.2826 60.214 75.9941 60.5022C75.7056 60.7903 75.3145 60.9521 74.9067 60.952L74.5119 60.9518C74.4721 62.5224 73.8136 64.0316 72.6311 65.0535C71.6793 65.8759 70.3429 66.5918 68.5817 66.6043C66.8205 66.5769 65.4903 65.8495 64.5452 65.0189C63.3712 63.987 62.7254 62.4724 62.6986 60.9014L62.2943 60.8997C61.7037 60.8972 61.2269 60.4105 61.2295 59.8127V52.9802Z" stroke="#317A9E" stroke-width="2" stroke-miterlimit="10" stroke-linecap="round" stroke-linejoin="round"/>
<path d="M73.1464 68.3908C72.4474 68.2459 71.8973 67.6691 71.8371 66.9578C71.8332 66.9103 71.8311 66.8625 71.8311 66.8143V65.65" stroke="#317A9E" stroke-width="2" stroke-miterlimit="10" stroke-linecap="round" stroke-linejoin="round"/>
<path d="M65.8456 65.9158V66.8145C65.8456 66.8626 65.8435 66.9104 65.8395 66.9579C65.7793 67.6691 65.2293 68.246 64.5303 68.3908" stroke="#317A9E" stroke-width="2" stroke-miterlimit="10" stroke-linecap="round" stroke-linejoin="round"/>
<path d="M39.0075 65.9159V66.8146C39.0075 66.8496 39.0064 66.8844 39.0043 66.9188C38.9597 67.6456 38.4066 68.243 37.6936 68.3907C37.6264 68.4047 37.5592 68.4192 37.4922 68.4341" stroke="#317A9E" stroke-width="2" stroke-miterlimit="10" stroke-linecap="round" stroke-linejoin="round"/>
<path d="M46.3061 68.3902C45.5931 68.2427 45.04 67.6451 44.9954 66.9184C44.9933 66.8839 44.9922 66.8491 44.9922 66.8141V66.1089" stroke="#317A9E" stroke-width="2" stroke-miterlimit="10" stroke-linecap="round" stroke-linejoin="round"/>
<path d="M12.1687 65.9159V66.8146C12.1687 66.8627 12.1667 66.9105 12.1627 66.958C12.1025 67.6691 11.5525 68.2461 10.8533 68.3908C10.7865 68.4048 10.7199 68.4192 10.6533 68.4341" stroke="#317A9E" stroke-width="2" stroke-miterlimit="10" stroke-linecap="round" stroke-linejoin="round"/>
<path d="M19.4667 68.3908C18.7677 68.2459 18.2175 67.6691 18.1574 66.9578C18.1533 66.9103 18.1514 66.8625 18.1514 66.8143V65.65" stroke="#317A9E" stroke-width="2" stroke-miterlimit="10" stroke-linecap="round" stroke-linejoin="round"/>
<path d="M28.2285 41.1697H23.4439C23.2042 41.1698 22.9711 41.091 22.7806 40.9455C22.5901 40.8001 22.4527 40.596 22.3896 40.3647L21.7101 37.876C21.5203 37.1808 22.0436 36.4954 22.7642 36.4954H61.2332C61.9539 36.4954 62.4772 37.1808 62.2875 37.876L61.6077 40.3647C61.5447 40.596 61.4073 40.8 61.2168 40.9455C61.0264 41.091 60.7933 41.1698 60.5537 41.1697H33.9088" stroke="#317A9E" stroke-width="2" stroke-miterlimit="10" stroke-linecap="round" stroke-linejoin="round"/>
<path d="M25.7441 41.1698L27.904 74.4306" stroke="#317A9E" stroke-width="2" stroke-miterlimit="10" stroke-linecap="round" stroke-linejoin="round"/>
<path d="M56.0938 74.4306L58.2536 41.1696" stroke="#317A9E" stroke-width="2" stroke-miterlimit="10" stroke-linecap="round" stroke-linejoin="round"/>
<path d="M36.5944 24.0869L35.041 24.7845C34.6052 24.9801 34.4731 25.5355 34.7741 25.9065L36.8465 28.4607C37.1421 28.8252 37.5586 29.0716 38.0204 29.1552C38.4821 29.2387 38.9586 29.154 39.3632 28.9162L41.9965 27.3696L37.9817 24.2399C37.7851 24.0931 37.5528 24.0014 37.3089 23.9745C37.065 23.9476 36.8183 23.9864 36.5944 24.0869Z" stroke="#317A9E" stroke-width="2" stroke-miterlimit="10" stroke-linecap="round" stroke-linejoin="round"/>
<path d="M47.3983 24.087L48.9517 24.7845C49.3875 24.9801 49.5196 25.5355 49.2186 25.9065L47.1463 28.4607C46.8507 28.8252 46.4342 29.0716 45.9724 29.1552C45.5106 29.2388 45.0341 29.154 44.6295 28.9163L41.9961 27.3696L46.011 24.24C46.2076 24.0931 46.4399 24.0015 46.6838 23.9746C46.9277 23.9477 47.1744 23.9865 47.3983 24.087Z" stroke="#317A9E" stroke-width="2" stroke-miterlimit="10" stroke-linecap="round" stroke-linejoin="round"/>
<path d="M34.7533 25.0175C31.6893 26.1925 27.3799 28.8719 27.3799 34.6508V36.4951" stroke="#317A9E" stroke-width="2" stroke-miterlimit="10" stroke-linecap="round" stroke-linejoin="round"/>
<path d="M56.6187 36.4951V34.6508C56.6187 28.8663 52.301 26.1873 49.2363 25.0141" stroke="#317A9E" stroke-width="2" stroke-miterlimit="10" stroke-linecap="round" stroke-linejoin="round"/>
<path d="M33.7155 11.7052L33.71 14.2168C33.7074 14.8681 34.2266 15.3982 34.8701 15.401L35.3107 15.4028C35.3397 17.1144 36.0434 18.7645 37.3223 19.8887C38.3519 20.7936 39.8011 21.586 41.7198 21.6158C41.8143 21.615 42.1837 21.615 42.278 21.6158C44.1967 21.586 45.6461 20.7936 46.6755 19.8887C47.9544 18.7645 48.6581 17.1144 48.6873 15.4028L49.1279 15.401C49.7712 15.3982 50.2906 14.8681 50.2879 14.2168L50.2825 11.7052" stroke="#317A9E" stroke-width="2" stroke-miterlimit="10" stroke-linecap="round" stroke-linejoin="round"/>
<path d="M50.2814 11.6742V8.10226C50.2814 4.781 47.5889 2.08857 44.2677 2.08857H34.8302C34.6831 2.08857 34.5374 2.11755 34.4014 2.17386C34.2655 2.23017 34.142 2.31269 34.038 2.41673C33.934 2.52077 33.8515 2.64428 33.7952 2.78021C33.7389 2.91614 33.7099 3.06182 33.71 3.20895C33.71 5.49118 35.5601 7.34135 37.8424 7.34135H44.0967C45.3017 7.34135 46.2785 8.31813 46.2785 9.52326C46.2785 10.7281 47.2554 11.7049 48.4604 11.7049H50.2879L50.2814 11.6742Z" stroke="#317A9E" stroke-width="2" stroke-miterlimit="10" stroke-linecap="round" stroke-linejoin="round"/>
<path d="M34.6205 5.79644C34.0233 6.49025 33.7148 7.35245 33.7148 8.28661V11.7053H36.1544C37.3408 11.7053 38.3025 10.7434 38.3025 9.55722V7.34159" stroke="#317A9E" stroke-width="2" stroke-miterlimit="10" stroke-linecap="round" stroke-linejoin="round"/>
<path d="M46.2082 24.1195C45.974 23.9363 45.7846 23.7022 45.6543 23.435C45.524 23.1677 45.4562 22.8743 45.4561 22.577V20.7579" stroke="#317A9E" stroke-width="2" stroke-miterlimit="10" stroke-linecap="round" stroke-linejoin="round"/>
<path d="M38.5425 20.7588V22.577C38.5425 23.1867 38.2587 23.7538 37.7881 24.1213" stroke="#317A9E" stroke-width="2" stroke-miterlimit="10" stroke-linecap="round" stroke-linejoin="round"/>
<path d="M7.41113 82.6167V78.5548C7.41113 76.7834 8.84705 75.3473 10.6185 75.3473H19.7015C21.4729 75.3473 22.9089 76.7834 22.9089 78.5548V82.6167" stroke="#317A9E" stroke-width="2" stroke-miterlimit="10" stroke-linecap="round" stroke-linejoin="round"/>
<path d="M34.25 82.6167V78.5548C34.25 76.7834 35.6859 75.3473 37.4573 75.3473H46.5404C48.3118 75.3473 49.7477 76.7834 49.7477 78.5548V82.6167" stroke="#317A9E" stroke-width="2" stroke-miterlimit="10" stroke-linecap="round" stroke-linejoin="round"/>
<path d="M61.0898 82.6167V78.5548C61.0898 76.7834 62.5258 75.3474 64.2972 75.3474H73.3802C75.1518 75.3474 76.5877 76.7834 76.5877 78.5548V82.6167" stroke="#317A9E" stroke-width="2" stroke-miterlimit="10" stroke-linecap="round" stroke-linejoin="round"/>
<path d="M34.6524 52.9802C34.6524 51.9545 35.4839 51.1228 36.5098 51.1228H36.5725C36.7389 51.1227 36.8985 51.0566 37.0161 50.939C37.1337 50.8213 37.1999 50.6618 37.1999 50.4954C37.1999 49.4695 38.0315 48.6378 39.0574 48.6378H44.9696C47.6007 48.6378 49.7462 50.7708 49.7462 53.4019V59.4153C49.7456 60.2644 49.1788 60.9523 48.3296 60.952L47.9348 60.9518C47.8949 62.5224 47.2364 64.0316 46.0541 65.0535C45.1022 65.8759 43.7657 66.5918 42.0046 66.6043C40.2434 66.5769 38.9131 65.8497 37.9681 65.0189C36.7942 63.987 36.1482 62.4724 36.1215 60.9014L35.7171 60.8997C35.1266 60.8972 34.6498 60.4105 34.6524 59.8128V52.9802Z" stroke="#317A9E" stroke-width="2" stroke-miterlimit="10" stroke-linecap="round" stroke-linejoin="round"/>
</g>
</svg>
