<svg width="88" height="76" viewBox="0 0 88 76" fill="none" xmlns="http://www.w3.org/2000/svg">
<path d="M79.7403 47.6519C82.1707 47.6519 83.7769 45.1256 82.7457 42.9245C82.5165 42.4353 82.4101 41.8975 82.4359 41.3578C82.4617 40.8181 82.6189 40.2929 82.8938 39.8278L83.1924 39.3224C83.5129 38.7799 83.6724 38.1574 83.6523 37.5276C83.6321 36.8979 83.4331 36.2868 83.0785 35.766L83.049 35.7227C81.9107 34.0509 81.302 32.0752 81.3021 30.0527V21.8434M46.2035 21.8432V30.0525C46.2035 32.075 45.5948 34.0507 44.4566 35.7226L44.427 35.7658C44.0724 36.2867 43.8734 36.8977 43.8532 37.5274C43.833 38.1572 43.9925 38.7797 44.313 39.3222L44.6116 39.8276C44.8865 40.2928 45.0437 40.818 45.0695 41.3576C45.0952 41.8973 44.9889 42.4351 44.7596 42.9244C44.3711 43.7535 44.3569 44.6291 44.6202 45.3981M68.6331 38.1209V43.0503M58.8725 43.0503V38.1209M58.3751 25.5239H58.9285M68.577 25.5239H69.1305M77.717 9.63304C79.9615 12.4624 81.3021 16.0414 81.3021 19.9334V21.8432H72.3363C71.226 21.8432 70.1308 21.5866 69.1361 21.0935C68.1414 20.6003 67.2741 19.884 66.6019 19.0003L65.0405 16.9476C64.393 16.0964 63.1125 16.0964 62.4651 16.9476L60.9036 19.0003C60.2315 19.884 59.3642 20.6004 58.3695 21.0935C57.3747 21.5867 56.2795 21.8432 55.1693 21.8432H46.2033V19.9334C46.2033 10.7728 53.6295 3.34675 62.79 3.34675H64.7152C68.3762 3.34675 71.7602 4.53283 74.504 6.54177M60.8264 32.2443L61.0997 32.3915C61.9068 32.826 62.8139 33.0411 63.7302 33.0152C64.6465 32.9894 65.54 32.7236 66.3214 32.2443M86.4756 58.2043V54.2594C86.4756 53.3406 86.2101 52.4414 85.7109 51.67C85.2118 50.8986 84.5004 50.2879 83.6622 49.9115L68.4362 43.0714L66.3359 44.8884C64.8528 46.1715 62.6527 46.1715 61.1696 44.8884L59.0694 43.0712L37.8819 46.9361M46.9691 74.8418H82.862C84.8577 74.8418 86.4756 73.2239 86.4756 71.2281V63.6159M46.9691 74.8418H22.7278M46.9691 74.8418V54.2594C46.9691 53.3406 46.7036 52.4414 46.2044 51.67C45.7053 50.8986 44.9939 50.2879 44.1557 49.9115L28.9297 43.0714M28.9297 38.3407V43.0714M28.9297 43.0714L26.8294 44.8884C25.3463 46.1715 23.1462 46.1715 21.6631 44.8884L19.5629 43.0712L15.4805 44.9051M19.5627 43.0714V38.3407M3.19496 50.6342C2.67083 51.0817 2.24998 51.6375 1.96141 52.2634C1.67284 52.8892 1.52342 53.5702 1.52344 54.2594V71.2281C1.52344 73.2239 3.14129 74.8418 5.13707 74.8418H17.9565M12.3476 65.5362V74.8418M36.1449 65.5362V74.8418M75.6515 65.5362V74.8418M8.16629 42.4642H13.1108C14.2268 42.4642 15.1315 43.369 15.1315 44.485V47.1333C15.1315 48.9684 13.6437 50.4562 11.8086 50.4562H9.46843C7.63333 50.4562 6.14555 48.9684 6.14555 47.1333V44.485C6.14555 43.369 7.05028 42.4642 8.16629 42.4642Z" stroke="#317A9E" stroke-width="2" stroke-miterlimit="10" stroke-linecap="round" stroke-linejoin="round"/>
<path d="M75.2999 22.1565V27.9835C75.2999 34.0481 70.3836 38.9644 64.319 38.9644H63.1845C57.12 38.9644 52.2037 34.0481 52.2037 27.9835V22.1565M12.4541 27.6829H10.2829C8.70236 27.6829 7.4209 26.4016 7.4209 24.8208V23.6517C7.4209 22.0711 8.70219 20.7896 10.2829 20.7896H12.5151M35.8257 20.7896H38.2076C39.7882 20.7896 41.0696 22.0709 41.0696 23.6517V24.8208C41.0696 26.4014 39.7884 27.6829 38.2076 27.6829H36.0298M18.8525 24.2597H19.4075M29.083 24.2597H29.638" stroke="#317A9E" stroke-width="2" stroke-miterlimit="10" stroke-linecap="round" stroke-linejoin="round"/>
<path d="M35.8277 21.3263V27.5548C35.8277 33.6194 30.9114 38.5357 24.8468 38.5357H23.6478C17.5832 38.5357 12.6669 33.6194 12.6669 27.5548V21.3263M31.7599 16.1213L32.9317 19.3671C33.0821 19.7837 33.3572 20.1438 33.7197 20.3983C34.0822 20.6528 34.5143 20.7894 34.9572 20.7894H38.2096V8.45153C38.2096 4.81277 35.2599 1.86304 31.6211 1.86304H16.8736C13.2349 1.86304 10.2852 4.81277 10.2852 8.45153V20.7896H13.5374C13.9803 20.7896 14.4125 20.653 14.775 20.3985C15.1374 20.144 15.4126 19.7839 15.563 19.3673L16.7347 16.1215C16.9241 15.5969 17.2706 15.1434 17.7271 14.8229C18.1835 14.5024 18.7277 14.3305 19.2855 14.3305H29.2091C29.7669 14.3304 30.3111 14.5023 30.7676 14.8228C31.224 15.1433 31.5706 15.5967 31.7599 16.1213Z" stroke="#317A9E" stroke-width="2" stroke-miterlimit="10" stroke-linecap="round" stroke-linejoin="round"/>
<path d="M21.5 31.129L21.7733 31.2762C22.5805 31.7107 23.4875 31.9258 24.4038 31.8999C25.3202 31.8741 26.2136 31.6083 26.9951 31.129" stroke="#317A9E" stroke-width="2" stroke-miterlimit="10" stroke-linecap="round" stroke-linejoin="round"/>
</svg>
