<svg width="16" height="16" viewBox="0 0 16 16" fill="none" xmlns="http://www.w3.org/2000/svg">
<g clip-path="url(#clip0_215_2)">
<path d="M5.9375 2.15625C5.71875 1.75 5.28125 1.5 4.8125 1.5H4.75C4.03125 1.5 3.5 2.0625 3.5 2.75C3.5 3.46875 4.03125 4 4.75 4H7H7.03125L5.9375 2.15625ZM2 2.75C2 1.25 3.21875 0 4.75 0H4.8125C5.8125 0 6.71875 0.53125 7.21875 1.40625L8 2.6875L8.75 1.40625C9.25 0.53125 10.1562 0 11.1562 0H11.25C12.75 0 14 1.25 14 2.75C14 3.21875 13.875 3.625 13.6875 4H16V8H0V4H2.28125C2.09375 3.625 2 3.21875 2 2.75ZM12.5 2.75C12.5 2.0625 11.9375 1.5 11.25 1.5H11.1562C10.6875 1.5 10.2812 1.75 10.0312 2.15625L8.9375 4H9H11.25C11.9375 4 12.5 3.46875 12.5 2.75ZM1 9H7V16H1V9ZM9 16V9H15V16H9Z" fill="white"/>
</g>
<defs>
<clipPath id="clip0_215_2">
<rect width="16" height="16" fill="white"/>
</clipPath>
</defs>
</svg>
