<svg width="31" height="31" viewBox="0 0 31 31" fill="none" xmlns="http://www.w3.org/2000/svg">
<path d="M20.6144 4.09104C22.0739 4.0954 23.4723 4.6771 24.5043 5.70911C25.5363 6.74112 26.1181 8.13958 26.1224 9.59905V20.6139C26.1181 22.0734 25.5363 23.4718 24.5043 24.5038C23.4723 25.5359 22.0739 26.1176 20.6144 26.1219H9.59954C8.14007 26.1176 6.74161 25.5359 5.7096 24.5038C4.67759 23.4718 4.09588 22.0734 4.09152 20.6139V9.59905C4.09588 8.13958 4.67759 6.74112 5.7096 5.70911C6.74161 4.6771 8.14007 4.0954 9.59954 4.09104H20.6144ZM20.6144 1.88818H9.59954C5.35847 1.88818 1.88867 5.35799 1.88867 9.59905V20.6139C1.88867 24.855 5.35847 28.3248 9.59954 28.3248H20.6144C24.8555 28.3248 28.3253 24.855 28.3253 20.6139V9.59905C28.3253 5.35799 24.8555 1.88818 20.6144 1.88818Z" fill="white"/>
<path d="M22.2659 9.59901C21.9391 9.59901 21.6197 9.5021 21.348 9.32055C21.0763 9.13899 20.8645 8.88094 20.7394 8.57902C20.6144 8.27711 20.5816 7.94489 20.6454 7.62438C20.7092 7.30386 20.8665 7.00945 21.0976 6.77838C21.3287 6.5473 21.6231 6.38994 21.9436 6.32618C22.2641 6.26243 22.5963 6.29515 22.8982 6.42021C23.2002 6.54526 23.4582 6.75704 23.6398 7.02876C23.8213 7.30048 23.9182 7.61993 23.9182 7.94672C23.9187 8.16383 23.8763 8.3789 23.7934 8.57958C23.7105 8.78025 23.5888 8.96258 23.4353 9.11611C23.2818 9.26963 23.0995 9.39132 22.8988 9.47419C22.6981 9.55706 22.483 9.59947 22.2659 9.59901ZM15.1062 10.7001C15.9777 10.7001 16.8296 10.9586 17.5542 11.4427C18.2788 11.9269 18.8436 12.6151 19.1771 13.4202C19.5106 14.2254 19.5979 15.1113 19.4279 15.9661C19.2578 16.8208 18.8382 17.6059 18.2219 18.2222C17.6057 18.8384 16.8206 19.258 15.9658 19.4281C15.1111 19.5981 14.2252 19.5108 13.42 19.1773C12.6149 18.8438 11.9267 18.2791 11.4425 17.5544C10.9584 16.8298 10.6999 15.9779 10.6999 15.1064C10.7012 13.9382 11.1658 12.8182 11.9919 11.9921C12.818 11.166 13.938 10.7014 15.1062 10.7001ZM15.1062 8.49729C13.7991 8.49729 12.5212 8.88491 11.4344 9.61113C10.3475 10.3374 9.5004 11.3696 9.00016 12.5772C8.49993 13.7849 8.36905 15.1138 8.62407 16.3958C8.87908 17.6779 9.50854 18.8555 10.4328 19.7798C11.3572 20.7041 12.5348 21.3336 13.8168 21.5886C15.0989 21.8436 16.4278 21.7127 17.6354 21.2125C18.8431 20.7123 19.8753 19.8651 20.6015 18.7783C21.3278 17.6914 21.7154 16.4136 21.7154 15.1064C21.7154 13.3536 21.0191 11.6725 19.7796 10.4331C18.5401 9.19361 16.8591 8.49729 15.1062 8.49729Z" fill="white"/>
</svg>
