<svg width="32" height="31" viewBox="0 0 32 31" fill="none" xmlns="http://www.w3.org/2000/svg">
<path d="M27.6165 1.88818H5.10286C3.87268 1.88818 2.79785 2.75563 2.79785 3.94705V26.0594C2.79785 27.2573 3.87268 28.3248 5.10286 28.3248H27.6099C28.8467 28.3248 29.774 27.2502 29.774 26.0594V3.94705C29.7812 2.75563 28.8467 1.88818 27.6165 1.88818ZM11.1598 23.9244H7.29528V12.1489H11.1598V23.9244ZM9.36124 10.3585H9.33354C8.09673 10.3585 7.29588 9.45625 7.29588 8.32679C7.29588 7.17668 8.11781 6.29566 9.38231 6.29566C10.6468 6.29566 11.4206 7.17019 11.4483 8.32679C11.4477 9.45625 10.6468 10.3585 9.36124 10.3585ZM25.2838 23.9244H21.4192V17.4858C21.4192 15.9432 20.8568 14.8893 19.4586 14.8893C18.3904 14.8893 17.7582 15.5974 17.477 16.2873C17.3716 16.5351 17.3433 16.8727 17.3433 17.2173V23.9244H13.4787V12.1489H17.3433V13.7876C17.9057 13.0028 18.7842 11.8733 20.8285 11.8733C23.3653 11.8733 25.2844 13.512 25.2844 17.045L25.2838 23.9244Z" fill="white"/>
</svg>
