<svg width="32" height="31" viewBox="0 0 32 31" fill="none" xmlns="http://www.w3.org/2000/svg">
<path d="M30.5758 6.46183C29.4916 6.9235 28.3445 7.22766 27.1707 7.36469C28.4043 6.65679 29.332 5.53216 29.7798 4.20174C28.6135 4.87008 27.3396 5.33903 26.0128 5.58848C25.454 5.01462 24.7821 4.5581 24.0377 4.24667C23.2933 3.93524 22.4921 3.7754 21.6827 3.77687C18.4059 3.77687 15.754 6.33791 15.754 9.49496C15.7517 9.93409 15.803 10.3719 15.907 10.7991C13.5572 10.6911 11.2563 10.1037 9.15149 9.07437C7.04666 8.04503 5.18425 6.59647 3.68342 4.82135C3.15688 5.69123 2.87843 6.68374 2.87714 7.69515C2.87714 9.67789 3.9327 11.4305 5.52658 12.4573C4.58225 12.4353 3.65728 12.1904 2.83018 11.7432V11.8141C2.83018 14.5875 4.87747 16.8948 7.58712 17.42C7.07758 17.5532 6.5525 17.6206 6.02516 17.6207C5.65097 17.6213 5.27764 17.5857 4.91059 17.5145C5.66387 19.7863 7.85628 21.4386 10.4533 21.4858C8.34304 23.0797 5.75216 23.9411 3.08789 23.9348C2.61498 23.9341 2.1425 23.9065 1.67285 23.8522C4.38322 25.5482 7.5338 26.4454 10.7496 26.4368C21.6701 26.4368 27.6362 17.721 27.6362 10.1618C27.6362 9.91393 27.6295 9.66609 27.6175 9.42415C28.7755 8.61692 29.7773 7.61378 30.5758 6.46183Z" fill="white"/>
</svg>
