<svg width="31" height="31" viewBox="0 0 31 31" fill="none" xmlns="http://www.w3.org/2000/svg">
<g clip-path="url(#clip0_929_46)">
<path d="M30.0495 8.78033C30.0495 6.12487 28.0963 3.9887 25.6828 3.9887C22.4136 3.83587 19.0795 3.77686 15.6723 3.77686H14.6101C11.2111 3.77686 7.8711 3.83587 4.60193 3.98929C2.19431 3.98929 0.241074 6.13727 0.241074 8.79273C0.0935488 10.8929 0.0309979 12.9937 0.0345385 15.0944C0.0286375 17.1952 0.0955158 19.2979 0.235173 21.4026C0.235173 24.0581 2.18841 26.212 4.59603 26.212C8.03043 26.3713 11.5533 26.4421 15.1353 26.4362C18.7231 26.448 22.2362 26.3733 25.6745 26.212C28.088 26.212 30.0413 24.0581 30.0413 21.4026C30.1829 19.296 30.2478 17.1952 30.2419 15.0885C30.2553 12.9878 30.1911 10.885 30.0495 8.78033ZM12.2497 20.8833V9.28782L20.8061 15.0826L12.2497 20.8833Z" fill="white"/>
</g>
<defs>
<clipPath id="clip0_929_46">
<rect width="30.2132" height="30.2132" fill="white" transform="translate(0.0341797)"/>
</clipPath>
</defs>
</svg>
